<mxfile host="Electron" modified="2023-10-14T03:43:39.764Z" agent="Mozilla/5.0 (Windows NT 10.0; Win64; x64) AppleWebKit/537.36 (KHTML, like Gecko) draw.io/22.0.2 Chrome/114.0.5735.289 Electron/25.8.4 Safari/537.36" etag="67avLol-TDaVw3lSTynz" version="22.0.2" type="device">
  <diagram name="Page-1" id="hkQ2YH4Xm1dCYxn1cZIf">
    <mxGraphModel dx="2537" dy="993" grid="1" gridSize="10" guides="1" tooltips="1" connect="1" arrows="1" fold="1" page="1" pageScale="1" pageWidth="850" pageHeight="1100" math="0" shadow="0">
      <root>
        <mxCell id="0" />
        <mxCell id="1" parent="0" />
        <mxCell id="Rc5J1klYuweWwqny8kLW-35" value="" style="endArrow=none;html=1;rounded=0;" edge="1" parent="1">
          <mxGeometry width="50" height="50" relative="1" as="geometry">
            <mxPoint x="589.71" y="510" as="sourcePoint" />
            <mxPoint x="589.71" y="460" as="targetPoint" />
          </mxGeometry>
        </mxCell>
        <mxCell id="Rc5J1klYuweWwqny8kLW-36" value="" style="endArrow=none;html=1;rounded=0;" edge="1" parent="1">
          <mxGeometry width="50" height="50" relative="1" as="geometry">
            <mxPoint x="759.93" y="510" as="sourcePoint" />
            <mxPoint x="759.93" y="460" as="targetPoint" />
          </mxGeometry>
        </mxCell>
        <mxCell id="Rc5J1klYuweWwqny8kLW-37" value="" style="endArrow=none;html=1;rounded=0;" edge="1" parent="1">
          <mxGeometry width="50" height="50" relative="1" as="geometry">
            <mxPoint x="929.8299999999999" y="510" as="sourcePoint" />
            <mxPoint x="929.8299999999999" y="460" as="targetPoint" />
          </mxGeometry>
        </mxCell>
        <mxCell id="Rc5J1klYuweWwqny8kLW-32" style="edgeStyle=orthogonalEdgeStyle;rounded=0;orthogonalLoop=1;jettySize=auto;html=1;exitX=0;exitY=0.25;exitDx=0;exitDy=0;" edge="1" parent="1">
          <mxGeometry relative="1" as="geometry">
            <mxPoint x="1120" y="460" as="targetPoint" />
            <mxPoint x="429.94000000000005" y="461" as="sourcePoint" />
            <Array as="points">
              <mxPoint x="430" y="460" />
            </Array>
          </mxGeometry>
        </mxCell>
        <mxCell id="Rc5J1klYuweWwqny8kLW-30" value="" style="endArrow=none;html=1;rounded=0;" edge="1" parent="1">
          <mxGeometry width="50" height="50" relative="1" as="geometry">
            <mxPoint x="199.71" y="510" as="sourcePoint" />
            <mxPoint x="199.71" y="460" as="targetPoint" />
          </mxGeometry>
        </mxCell>
        <mxCell id="Rc5J1klYuweWwqny8kLW-29" value="" style="endArrow=none;html=1;rounded=0;" edge="1" parent="1">
          <mxGeometry width="50" height="50" relative="1" as="geometry">
            <mxPoint x="-140.29" y="510" as="sourcePoint" />
            <mxPoint x="-140.29" y="460" as="targetPoint" />
          </mxGeometry>
        </mxCell>
        <mxCell id="Rc5J1klYuweWwqny8kLW-28" value="" style="endArrow=none;html=1;rounded=0;" edge="1" parent="1">
          <mxGeometry width="50" height="50" relative="1" as="geometry">
            <mxPoint x="29.71" y="510" as="sourcePoint" />
            <mxPoint x="29.71" y="460" as="targetPoint" />
          </mxGeometry>
        </mxCell>
        <mxCell id="Rc5J1klYuweWwqny8kLW-2" value="Deputy" style="rounded=0;whiteSpace=wrap;html=1;" vertex="1" parent="1">
          <mxGeometry x="480" y="290" width="92.5" height="40" as="geometry" />
        </mxCell>
        <mxCell id="Rc5J1klYuweWwqny8kLW-7" value="Presidential&amp;nbsp;Council&lt;br&gt;&lt;br&gt;&amp;lt;--Ministries--&amp;gt;" style="whiteSpace=wrap;html=1;aspect=fixed;" vertex="1" parent="1">
          <mxGeometry x="330" y="430" width="130" height="130" as="geometry" />
        </mxCell>
        <mxCell id="Rc5J1klYuweWwqny8kLW-12" style="edgeStyle=orthogonalEdgeStyle;rounded=0;orthogonalLoop=1;jettySize=auto;html=1;entryX=0.5;entryY=0;entryDx=0;entryDy=0;" edge="1" parent="1" source="Rc5J1klYuweWwqny8kLW-9" target="Rc5J1klYuweWwqny8kLW-2">
          <mxGeometry relative="1" as="geometry" />
        </mxCell>
        <mxCell id="Rc5J1klYuweWwqny8kLW-13" style="edgeStyle=orthogonalEdgeStyle;rounded=0;orthogonalLoop=1;jettySize=auto;html=1;" edge="1" parent="1" source="Rc5J1klYuweWwqny8kLW-9" target="Rc5J1klYuweWwqny8kLW-7">
          <mxGeometry relative="1" as="geometry" />
        </mxCell>
        <mxCell id="Rc5J1klYuweWwqny8kLW-45" style="edgeStyle=orthogonalEdgeStyle;rounded=0;orthogonalLoop=1;jettySize=auto;html=1;entryX=0.5;entryY=0;entryDx=0;entryDy=0;" edge="1" parent="1" source="Rc5J1klYuweWwqny8kLW-9" target="Rc5J1klYuweWwqny8kLW-44">
          <mxGeometry relative="1" as="geometry" />
        </mxCell>
        <mxCell id="Rc5J1klYuweWwqny8kLW-9" value="&lt;font style=&quot;font-size: 17px;&quot;&gt;President&lt;/font&gt;" style="rhombus;whiteSpace=wrap;html=1;" vertex="1" parent="1">
          <mxGeometry x="347.5" y="160" width="95" height="130" as="geometry" />
        </mxCell>
        <mxCell id="Rc5J1klYuweWwqny8kLW-14" value="Ministry of&lt;br&gt;Technological Advancement and Innovation" style="whiteSpace=wrap;html=1;aspect=fixed;" vertex="1" parent="1">
          <mxGeometry x="160" y="490" width="80" height="80" as="geometry" />
        </mxCell>
        <mxCell id="Rc5J1klYuweWwqny8kLW-16" value="Ministry of Defense and National Security" style="whiteSpace=wrap;html=1;aspect=fixed;" vertex="1" parent="1">
          <mxGeometry x="550" y="490" width="80" height="80" as="geometry" />
        </mxCell>
        <mxCell id="Rc5J1klYuweWwqny8kLW-18" value="Ministry for Church Affairs" style="whiteSpace=wrap;html=1;aspect=fixed;" vertex="1" parent="1">
          <mxGeometry x="720" y="490" width="80" height="80" as="geometry" />
        </mxCell>
        <mxCell id="Rc5J1klYuweWwqny8kLW-19" value="Ministry of Economic Planning and Development" style="whiteSpace=wrap;html=1;aspect=fixed;" vertex="1" parent="1">
          <mxGeometry x="-10" y="490" width="80" height="80" as="geometry" />
        </mxCell>
        <mxCell id="Rc5J1klYuweWwqny8kLW-20" value="&lt;div&gt;&lt;div&gt;Ministry of Health and Public Welfare&lt;/div&gt;&lt;/div&gt;&lt;div&gt;&lt;br&gt;&lt;/div&gt;" style="whiteSpace=wrap;html=1;aspect=fixed;" vertex="1" parent="1">
          <mxGeometry x="890" y="490" width="80" height="80" as="geometry" />
        </mxCell>
        <mxCell id="Rc5J1klYuweWwqny8kLW-21" value="&lt;div style=&quot;&quot;&gt;&lt;font face=&quot;SÃ¶hne, ui-sans-serif, system-ui, -apple-system, Segoe UI, Roboto, Ubuntu, Cantarell, Noto Sans, sans-serif, Helvetica Neue, Arial, Apple Color Emoji, Segoe UI Emoji, Segoe UI Symbol, Noto Color Emoji&quot;&gt;&lt;div style=&quot;&quot;&gt;&lt;div style=&quot;&quot;&gt;&lt;div style=&quot;&quot;&gt;Ministry of Foreign Affairs and Diplomacy&lt;/div&gt;&lt;div style=&quot;color: rgb(209, 213, 219);&quot;&gt;&lt;br&gt;&lt;/div&gt;&lt;/div&gt;&lt;/div&gt;&lt;/font&gt;&lt;/div&gt;" style="whiteSpace=wrap;html=1;aspect=fixed;" vertex="1" parent="1">
          <mxGeometry x="-180" y="490" width="80" height="80" as="geometry" />
        </mxCell>
        <mxCell id="Rc5J1klYuweWwqny8kLW-41" value="" style="edgeStyle=orthogonalEdgeStyle;rounded=0;orthogonalLoop=1;jettySize=auto;html=1;exitX=0;exitY=0.25;exitDx=0;exitDy=0;" edge="1" parent="1" source="Rc5J1klYuweWwqny8kLW-7">
          <mxGeometry relative="1" as="geometry">
            <mxPoint x="-355.7894736842105" y="465" as="targetPoint" />
            <mxPoint x="330" y="463" as="sourcePoint" />
            <Array as="points">
              <mxPoint x="76" y="462" />
            </Array>
          </mxGeometry>
        </mxCell>
        <mxCell id="Rc5J1klYuweWwqny8kLW-44" value="Minister of the Interior" style="whiteSpace=wrap;html=1;aspect=fixed;" vertex="1" parent="1">
          <mxGeometry x="220" y="330" width="80" height="80" as="geometry" />
        </mxCell>
        <mxCell id="Rc5J1klYuweWwqny8kLW-47" value="Ministry of Education and Knowledge Acquisition" style="whiteSpace=wrap;html=1;aspect=fixed;" vertex="1" parent="1">
          <mxGeometry x="-300" y="490" width="80" height="80" as="geometry" />
        </mxCell>
        <mxCell id="Rc5J1klYuweWwqny8kLW-48" value="Ministry of Culture and Propaganda" style="whiteSpace=wrap;html=1;aspect=fixed;" vertex="1" parent="1">
          <mxGeometry x="1020" y="490" width="80" height="80" as="geometry" />
        </mxCell>
        <mxCell id="Rc5J1klYuweWwqny8kLW-50" value="&lt;font style=&quot;font-size: 41px;&quot;&gt;Senate Commision&lt;/font&gt;" style="whiteSpace=wrap;html=1;aspect=fixed;" vertex="1" parent="1">
          <mxGeometry x="265" y="770" width="260" height="260" as="geometry" />
        </mxCell>
        <mxCell id="Rc5J1klYuweWwqny8kLW-64" style="edgeStyle=orthogonalEdgeStyle;rounded=0;orthogonalLoop=1;jettySize=auto;html=1;entryX=0.5;entryY=0;entryDx=0;entryDy=0;" edge="1" parent="1" source="Rc5J1klYuweWwqny8kLW-62" target="Rc5J1klYuweWwqny8kLW-50">
          <mxGeometry relative="1" as="geometry" />
        </mxCell>
        <mxCell id="Rc5J1klYuweWwqny8kLW-62" value="When a Minister is removed from office (Dies, Resigns, Removed, ect.) a Counsil within the said Ministery elects a member of the Senate Commision to lead said ministry" style="whiteSpace=wrap;html=1;aspect=fixed;strokeWidth=4;" vertex="1" parent="1">
          <mxGeometry x="315" y="590" width="160" height="160" as="geometry" />
        </mxCell>
        <mxCell id="Rc5J1klYuweWwqny8kLW-65" style="edgeStyle=orthogonalEdgeStyle;rounded=0;orthogonalLoop=1;jettySize=auto;html=1;entryX=0.506;entryY=1.026;entryDx=0;entryDy=0;entryPerimeter=0;" edge="1" parent="1" source="Rc5J1klYuweWwqny8kLW-62" target="Rc5J1klYuweWwqny8kLW-7">
          <mxGeometry relative="1" as="geometry" />
        </mxCell>
        <mxCell id="Rc5J1klYuweWwqny8kLW-66" value="&lt;div&gt;Ministry of Evaluation and Certification&lt;/div&gt;&lt;div&gt;&lt;br&gt;&lt;/div&gt;" style="whiteSpace=wrap;html=1;aspect=fixed;" vertex="1" parent="1">
          <mxGeometry x="475" y="1090" width="90" height="90" as="geometry" />
        </mxCell>
        <mxCell id="Rc5J1klYuweWwqny8kLW-67" value="" style="endArrow=none;html=1;rounded=0;exitX=0.5;exitY=0;exitDx=0;exitDy=0;" edge="1" parent="1" source="Rc5J1klYuweWwqny8kLW-66">
          <mxGeometry width="50" height="50" relative="1" as="geometry">
            <mxPoint x="680" y="1070" as="sourcePoint" />
            <mxPoint x="680" y="460" as="targetPoint" />
            <Array as="points">
              <mxPoint x="635" y="1080" />
              <mxPoint x="680" y="1070" />
            </Array>
          </mxGeometry>
        </mxCell>
        <mxCell id="Rc5J1klYuweWwqny8kLW-74" style="edgeStyle=orthogonalEdgeStyle;rounded=0;orthogonalLoop=1;jettySize=auto;html=1;" edge="1" parent="1" source="Rc5J1klYuweWwqny8kLW-71" target="Rc5J1klYuweWwqny8kLW-75">
          <mxGeometry relative="1" as="geometry">
            <mxPoint x="395" y="1160" as="targetPoint" />
          </mxGeometry>
        </mxCell>
        <mxCell id="Rc5J1klYuweWwqny8kLW-71" value="&lt;font style=&quot;font-size: 29px;&quot;&gt;Party Members&lt;/font&gt;" style="rounded=0;whiteSpace=wrap;html=1;" vertex="1" parent="1">
          <mxGeometry x="210" y="1250" width="370" height="140" as="geometry" />
        </mxCell>
        <mxCell id="Rc5J1klYuweWwqny8kLW-73" value="" style="endArrow=classic;html=1;rounded=0;entryX=0.5;entryY=1;entryDx=0;entryDy=0;exitX=0.75;exitY=0;exitDx=0;exitDy=0;" edge="1" parent="1" source="Rc5J1klYuweWwqny8kLW-71" target="Rc5J1klYuweWwqny8kLW-66">
          <mxGeometry width="50" height="50" relative="1" as="geometry">
            <mxPoint x="522.5" y="1250" as="sourcePoint" />
            <mxPoint x="572.5" y="1200" as="targetPoint" />
          </mxGeometry>
        </mxCell>
        <mxCell id="Rc5J1klYuweWwqny8kLW-76" style="edgeStyle=orthogonalEdgeStyle;rounded=0;orthogonalLoop=1;jettySize=auto;html=1;entryX=0.5;entryY=1;entryDx=0;entryDy=0;" edge="1" parent="1" source="Rc5J1klYuweWwqny8kLW-75" target="Rc5J1klYuweWwqny8kLW-50">
          <mxGeometry relative="1" as="geometry" />
        </mxCell>
        <mxCell id="Rc5J1klYuweWwqny8kLW-75" value="Cannot run unless deemed Fit and&amp;nbsp;" style="rounded=0;whiteSpace=wrap;html=1;strokeWidth=6;" vertex="1" parent="1">
          <mxGeometry x="335" y="1100" width="120" height="60" as="geometry" />
        </mxCell>
        <mxCell id="Rc5J1klYuweWwqny8kLW-78" value="" style="endArrow=none;html=1;rounded=0;entryX=1;entryY=1;entryDx=0;entryDy=0;" edge="1" parent="1" target="Rc5J1klYuweWwqny8kLW-9">
          <mxGeometry width="50" height="50" relative="1" as="geometry">
            <mxPoint x="1600" y="540" as="sourcePoint" />
            <mxPoint x="480" y="320" as="targetPoint" />
            <Array as="points">
              <mxPoint x="1600" y="560" />
              <mxPoint x="1600" y="380" />
              <mxPoint x="450" y="380" />
            </Array>
          </mxGeometry>
        </mxCell>
        <mxCell id="Rc5J1klYuweWwqny8kLW-79" value="&lt;font style=&quot;font-size: 23px;&quot;&gt;Party Organizations&lt;/font&gt;" style="text;html=1;align=center;verticalAlign=middle;resizable=0;points=[];autosize=1;strokeColor=none;fillColor=none;strokeWidth=7;" vertex="1" parent="1">
          <mxGeometry x="1010" y="340" width="230" height="40" as="geometry" />
        </mxCell>
        <mxCell id="Rc5J1klYuweWwqny8kLW-88" style="edgeStyle=orthogonalEdgeStyle;rounded=0;orthogonalLoop=1;jettySize=auto;html=1;endArrow=none;endFill=0;" edge="1" parent="1" source="Rc5J1klYuweWwqny8kLW-86">
          <mxGeometry relative="1" as="geometry">
            <mxPoint x="1600" y="560" as="targetPoint" />
            <Array as="points">
              <mxPoint x="1490" y="570" />
              <mxPoint x="1600" y="570" />
            </Array>
          </mxGeometry>
        </mxCell>
        <mxCell id="Rc5J1klYuweWwqny8kLW-86" value="Iron Front" style="whiteSpace=wrap;html=1;aspect=fixed;" vertex="1" parent="1">
          <mxGeometry x="1450" y="580" width="80" height="80" as="geometry" />
        </mxCell>
        <mxCell id="Rc5J1klYuweWwqny8kLW-90" style="edgeStyle=orthogonalEdgeStyle;rounded=0;orthogonalLoop=1;jettySize=auto;html=1;endArrow=none;endFill=0;exitX=0.5;exitY=0;exitDx=0;exitDy=0;" edge="1" parent="1" source="Rc5J1klYuweWwqny8kLW-89">
          <mxGeometry relative="1" as="geometry">
            <mxPoint x="1600.0000000000005" y="570" as="targetPoint" />
            <Array as="points">
              <mxPoint x="1600" y="580" />
              <mxPoint x="1600" y="580" />
            </Array>
          </mxGeometry>
        </mxCell>
        <mxCell id="Rc5J1klYuweWwqny8kLW-89" value="National Labor Guild" style="whiteSpace=wrap;html=1;aspect=fixed;" vertex="1" parent="1">
          <mxGeometry x="1560" y="580" width="80" height="80" as="geometry" />
        </mxCell>
        <mxCell id="Rc5J1klYuweWwqny8kLW-92" value="Order of the Iron Vanguard" style="whiteSpace=wrap;html=1;aspect=fixed;" vertex="1" parent="1">
          <mxGeometry x="1340" y="580" width="80" height="80" as="geometry" />
        </mxCell>
        <mxCell id="Rc5J1klYuweWwqny8kLW-93" value="" style="endArrow=none;html=1;rounded=0;" edge="1" parent="1">
          <mxGeometry width="50" height="50" relative="1" as="geometry">
            <mxPoint x="1390" y="580" as="sourcePoint" />
            <mxPoint x="1490" y="570" as="targetPoint" />
            <Array as="points">
              <mxPoint x="1390" y="570" />
            </Array>
          </mxGeometry>
        </mxCell>
      </root>
    </mxGraphModel>
  </diagram>
</mxfile>
